<svg width="36" height="24" viewBox="0 0 36 24" fill="none" xmlns="http://www.w3.org/2000/svg">
<symbol id="icon-british-flag">
<path d="M0 0.00012207H35.9993V23.9999H0V0.00012207Z" fill="white"/>
<path d="M20.2496 0H15.7497V9.74976H0V14.2497H15.7497V23.9994H20.2496V14.2497H35.9993V9.74976H20.2496V0Z" fill="#D80027"/>
<path d="M27.6875 16.1735L35.9993 20.7913V16.1735H27.6875ZM21.9126 16.1735L35.9993 23.9994V21.7865L25.8961 16.1735H21.9126ZM32.2471 23.9994L21.9126 18.2575V23.9994H32.2471Z" fill="#0052B4"/>
<path d="M21.9126 16.1735L35.9993 23.9994V21.7865L25.8961 16.1735H21.9126Z" fill="white"/>
<path d="M21.9126 16.1735L35.9993 23.9994V21.7865L25.8961 16.1735H21.9126Z" fill="#D80027"/>
<path d="M6.35198 16.1734L0 19.7023V16.1734H6.35198ZM14.0867 17.1686V23.9994H1.7923L14.0867 17.1686Z" fill="#0052B4"/>
<path d="M10.1032 16.1735L0 21.7865V23.9994L14.0867 16.1735H10.1032Z" fill="#D80027"/>
<path d="M8.31183 7.82591L0 3.20815V7.82591H8.31183ZM14.0867 7.82591L0 0V2.21297L10.1032 7.82591H14.0867ZM3.75222 0L14.0867 5.74189V0H3.75222Z" fill="#0052B4"/>
<path d="M14.0867 7.82591L0 0V2.21297L10.1032 7.82591H14.0867Z" fill="white"/>
<path d="M14.0867 7.82591L0 0V2.21297L10.1032 7.82591H14.0867Z" fill="#D80027"/>
<path d="M29.6473 7.82604L35.9993 4.29712V7.82604H29.6473ZM21.9126 6.83085V6.10352e-05H34.207L21.9126 6.83085Z" fill="#0052B4"/>
<path d="M25.8961 7.82591L35.9993 2.21297V0L21.9126 7.82591H25.8961Z" fill="#D80027"/>
</symbol>
<symbol id="icon-paint-format" viewBox="0 0 32 32">
<path d="M32 18v-12h-6v-2c0-1.1-0.9-2-2-2h-22c-1.1 0-2 0.9-2 2v6c0 1.1 0.9 2 2 2h22c1.1 0 2-0.9 2-2v-2h4v8h-18v4h-1c-0.552 0-1 0.448-1 1v10c0 0.552 0.448 1 1 1h4c0.552 0 1-0.448 1-1v-10c0-0.552-0.448-1-1-1h-1v-2h18zM24 6h-22v-2h22v2z"></path>
</symbol>
</svg>
